<svg width="128" height="81" viewBox="0 0 128 81" fill="none" xmlns="http://www.w3.org/2000/svg">
<g id="Group 24">
<g id="fluent:reward-16-filled">
<g id="Group">
<path id="Vector" d="M61.7812 14.875C61.0105 14.875 60.2712 15.1812 59.7262 15.7262C59.1812 16.2712 58.875 17.0105 58.875 17.7812V20.0927C58.875 21.1002 59.3981 22.0341 60.2526 22.563L67.7429 27.1936C66.6036 27.8075 65.7018 28.784 65.1803 29.9685C64.6588 31.1529 64.5475 32.4775 64.8641 33.7323C65.1806 34.9872 65.9069 36.1005 66.9278 36.8959C67.9487 37.6912 69.2058 38.1231 70.5 38.1231C71.7942 38.1231 73.0513 37.6912 74.0722 36.8959C75.0931 36.1005 75.8194 34.9872 76.1359 33.7323C76.4525 32.4775 76.3412 31.1529 75.8197 29.9685C75.2982 28.784 74.3964 27.8075 73.2571 27.1936L80.7474 22.563C81.1684 22.3026 81.5159 21.9391 81.757 21.5067C81.9981 21.0744 82.1248 20.5877 82.125 20.0927V17.7812C82.125 17.0105 81.8188 16.2712 81.2738 15.7262C80.7288 15.1812 79.9895 14.875 79.2188 14.875H61.7812ZM66.625 24.2254V16.8125H74.375V24.2254L71.0096 26.3062C70.8565 26.4009 70.68 26.4511 70.5 26.4511C70.32 26.4511 70.1435 26.4009 69.9904 26.3062L66.625 24.2254ZM70.5 28.4375C71.5277 28.4375 72.5133 28.8458 73.24 29.5725C73.9667 30.2992 74.375 31.2848 74.375 32.3125C74.375 33.3402 73.9667 34.3258 73.24 35.0525C72.5133 35.7792 71.5277 36.1875 70.5 36.1875C69.4723 36.1875 68.4867 35.7792 67.76 35.0525C67.0333 34.3258 66.625 33.3402 66.625 32.3125C66.625 31.2848 67.0333 30.2992 67.76 29.5725C68.4867 28.8458 69.4723 28.4375 70.5 28.4375V28.4375Z" fill="#FCD34D"/>
</g>
</g>
<g id="Group_2">
<path id="Vector_2" fill-rule="evenodd" clip-rule="evenodd" d="M83.5054 46.093C79.7962 47.1426 75.7998 47.6678 71.3283 47.4379C72.0417 48.2864 72.1124 49.2378 71.7175 50.2315C71.3789 51.0839 70.6703 51.9579 69.7338 52.804C71.4343 52.0992 73.1275 51.3681 74.7542 50.6298C78.1696 49.0797 81.2768 47.5066 83.5054 46.093Z" fill="#FCD34D"/>
<path id="Vector_3" fill-rule="evenodd" clip-rule="evenodd" d="M31.7451 16.6662C54.5689 7.49456 80.9806 -2.97407 109.781 24.6677L120.991 24.4075C114.945 22.9517 111.457 19.8908 106.399 16.7053C96.3861 10.3999 86.3662 4.09042 75.2677 3.73684C71.2383 3.60833 67.128 4.17662 62.6075 5.35391C58.059 6.53917 53.0923 8.34301 47.3777 10.676C43.2706 12.3522 38.9491 13.3674 34.9631 15.1816C33.7361 15.7403 32.5131 16.2966 31.2933 16.8466C31.4434 16.7859 31.5943 16.7261 31.7451 16.6662Z" fill="#FCD34D"/>
<path id="Vector_4" d="M0 23.3973C3.86964 23.3246 7.71761 22.6997 11.5648 21.7004C15.4328 20.6963 19.2952 19.3146 23.1785 17.7359C27.0433 16.1643 30.9667 14.378 34.9367 12.5709C38.9403 10.7487 42.9905 8.90494 47.1138 7.2216C52.8853 4.86541 57.9098 3.0424 62.5313 1.83796C67.1818 0.626346 71.423 0.042088 75.6 0.175382C87.095 0.541741 97.2795 6.95501 107.458 13.3643C113.488 17.162 119.517 20.9581 125.767 23.4483L127.507 24.1412L125.75 24.7917C117.555 27.8279 110.964 32.2314 104.714 36.4074C90.4093 45.9638 77.8566 54.351 51.9376 43.2612C47.8328 41.5053 43.7826 39.4484 39.6578 37.3548C27.9197 31.3965 15.5773 25.1301 0.00160411 24.8364V23.3973H0ZM11.9283 23.0948C10.5368 23.4563 9.14365 23.7692 7.7481 24.0278C20.113 25.8141 30.4267 31.0485 40.315 36.069C44.4198 38.1522 48.4507 40.1987 52.509 41.9355C77.7058 52.7163 89.9519 44.5343 103.906 35.2109C109.794 31.2768 115.982 27.1431 123.564 24.0925C117.794 21.579 112.24 18.0823 106.685 14.5839C96.672 8.27838 86.652 1.96886 75.5535 1.61528C71.5241 1.48757 67.4145 2.05507 62.8941 3.23316C58.3447 4.41844 53.3781 6.2215 47.6635 8.55534C43.5571 10.2315 39.5238 12.0673 35.5378 13.8815C31.5742 15.6862 27.6564 17.4693 23.7226 19.0688C19.7783 20.6723 15.8557 22.0747 11.9283 23.0948Z" fill="#FCD34D"/>
<path id="Vector_5" d="M2.63141 23.3972C12.519 23.2344 22.2428 19.3705 32.3198 15.3661C54.4358 6.57838 78.2274 -2.87582 109.781 23.5672L110.438 24.1172L109.781 24.6679C78.2266 51.1109 54.435 41.6567 32.3198 32.869C22.2428 28.8646 12.5182 24.9999 2.63141 24.8379V23.3972V23.3972ZM32.8542 16.7038C25.1037 19.7831 17.5594 22.781 9.93011 24.1172C17.5603 25.4541 25.1045 28.4512 32.8542 31.5305C54.4261 40.1027 77.6231 49.3127 108.183 24.1172C77.6223 -1.07837 54.4261 8.1316 32.8542 16.7038Z" fill="#FCD34D"/>
<path id="Vector_6" d="M109.316 24.8396H125.497V23.3948H109.316V24.8396Z" fill="#FCD34D"/>
<path id="Vector_7" d="M75.6216 51.6769C81.1893 49.1499 85.9409 46.5599 87.3966 44.701L88.167 45.2996C89.1163 44.6898 89.8859 44.1774 90.4517 43.7879L91.5896 43.0057V71.1809C92.8303 67.8063 94.4537 64.5809 96.4271 61.7386C98.4863 58.7718 100.928 56.2209 103.715 54.3436H101.151C98.9317 54.3436 96.9166 53.4433 95.4577 51.9922C93.9979 50.5404 93.0935 48.5362 93.0935 46.3292V42.3296H94.5468V46.3292C94.5468 48.1379 95.2883 49.7805 96.4857 50.9706C97.6822 52.1606 99.3337 52.8989 101.152 52.8989H109.409L106.696 54.2646C103.154 56.0477 100.103 58.981 97.6204 62.5575C93.6015 68.3459 92.3167 73.9266 90.1379 80.3511V45.7394C85.148 49.0342 72.5296 56.695 58.0164 62.2646C48.7484 65.8213 38.6995 68.5286 29.344 68.7146C27.4734 68.7513 25.716 68.6883 24.0692 68.535C17.4791 67.9212 12.6441 65.8652 9.4277 63.0317C6.15833 60.1519 4.55896 56.4787 4.48272 52.6914C4.47229 52.1503 4.49235 51.6075 4.54291 51.0647C4.86792 47.6095 6.46569 44.6994 8.6878 42.6425C11.0816 40.426 14.2066 39.196 17.2568 39.3357C20.6049 39.4889 23.2057 41.1627 24.7634 43.4007C25.5851 44.5812 26.1164 45.9198 26.3146 47.2766C26.5144 48.6439 26.3748 50.0351 25.8524 51.3082C25.0202 53.3347 23.233 55.0356 20.32 55.8322L19.1082 56.1642L19.4292 54.955C20.3031 51.6618 19.8032 49.5993 18.7118 48.5346C18.2632 48.0972 17.7054 47.8266 17.1036 47.7077C16.4776 47.5847 15.8043 47.6231 15.1471 47.8074C13.4819 48.2752 11.9475 49.6687 11.5712 51.7392C11.2044 53.7538 11.8456 56.1219 13.3993 58.1533C14.8012 59.9875 16.9439 61.5399 19.7614 62.3149C23.8253 63.4315 28.9548 63.5409 34.0764 63.1618C42.1864 62.5623 50.241 60.7409 54.085 59.7472C58.2812 58.6609 67.7354 55.2567 75.6216 51.6769ZM67.4995 56.6527C62.1749 58.7367 57.2003 60.4288 54.4485 61.1408C50.5532 62.1481 42.3918 63.9934 34.1791 64.6009C28.9195 64.9896 23.6255 64.8706 19.3762 63.7029C16.2313 62.8385 13.8286 61.0913 12.2477 59.0225C10.4477 56.6671 9.71098 53.8839 10.1475 51.4846C10.633 48.8171 12.6112 47.0212 14.7571 46.4186C15.6302 46.1736 16.5346 46.1233 17.3828 46.2909C18.2543 46.4625 19.0657 46.8608 19.7293 47.5073C20.9965 48.7429 21.6906 50.8732 21.1209 54.0355C22.8575 53.2924 23.9609 52.1159 24.5154 50.7662C24.9359 49.7414 25.0459 48.6072 24.8814 47.4794C24.7152 46.3404 24.2666 45.2142 23.5741 44.2189C22.2548 42.3232 20.0463 40.9049 17.1967 40.7748C14.534 40.6527 11.7919 41.7406 9.67727 43.6977C7.69912 45.5295 6.2763 48.1211 5.9866 51.1948C5.94085 51.6849 5.9224 52.1758 5.93203 52.6627C6.00024 56.0573 7.44232 59.3569 10.3891 61.9533C13.3888 64.5961 17.9454 66.5188 24.2016 67.1015C25.7962 67.25 27.5007 67.3106 29.3176 67.2747C38.4805 67.0927 48.364 64.4253 57.4956 60.9213C60.9664 59.5884 64.3272 58.1357 67.4995 56.6527Z" fill="#FCD34D"/>
<path id="Vector_8" d="M19.6459 54.6005C21.2686 53.1471 22.1473 51.7032 22.4675 50.3719L22.4643 50.3711C22.7323 49.2576 22.6087 48.22 22.2075 47.3261C21.8014 46.421 21.1097 45.6531 20.247 45.0928C19.1748 44.3968 17.8435 44.0233 16.4656 44.1047C14.2531 44.2348 12.4451 45.0449 11.0656 46.2797C9.89638 47.3261 9.02808 48.679 8.47597 50.1843C7.91663 51.708 7.67989 53.3857 7.7794 55.0643C7.93267 57.6479 8.88604 60.2236 10.6925 62.2206L9.6139 63.1855C7.57717 60.9339 6.50423 58.0422 6.33169 55.1489C6.22015 53.2772 6.48658 51.3999 7.11252 49.6926C7.74569 47.9678 8.7448 46.4138 10.0946 45.2062C11.7084 43.7623 13.8142 42.8157 16.3798 42.6648C18.0738 42.565 19.7125 43.0256 21.035 43.8844C22.1272 44.5932 23.006 45.5749 23.5284 46.7386C24.0564 47.9143 24.2209 49.2664 23.8759 50.7031H23.8727C23.4883 52.3066 22.4707 54.0091 20.6145 55.6717L19.6459 54.6005Z" fill="#FCD34D"/>
<path id="Vector_9" d="M68.7081 46.6965C70.435 47.1267 71.5449 47.7317 72.166 48.4501C72.9067 49.3065 72.9845 50.2707 72.5849 51.278C72.243 52.1376 71.5248 53.0196 70.5763 53.8736C67.9192 56.2657 63.3033 58.5468 60.4111 59.345L60.0251 57.9562C62.756 57.2035 67.1079 55.0549 69.6061 52.8064C70.3925 52.0985 70.9775 51.3953 71.2343 50.748C71.4325 50.2475 71.406 49.7822 71.0658 49.3879C70.6365 48.8915 69.773 48.4501 68.3566 48.0973L68.7081 46.6965Z" fill="#FCD34D"/>
<path id="Vector_10" d="M90.1436 73.346C90.1476 73.3029 91.3979 58.4581 99.7735 52.9548L100.574 54.1569C92.7822 59.2762 91.5888 73.429 91.5848 73.4697L90.1436 73.346Z" fill="#FCD34D"/>
<path id="Vector_11" d="M53.3339 9.48693C51.8396 11.3179 50.6495 13.4067 49.8414 15.6759C49.063 17.8613 48.6385 20.2167 48.6385 22.6718C48.6385 26.0608 49.4466 29.2599 50.8807 32.087C52.3717 35.0266 54.5376 37.5696 57.1779 39.5123L56.3152 40.6697C53.4952 38.5936 51.1792 35.8767 49.587 32.7367C48.0511 29.7085 47.1868 26.2891 47.1868 22.6718C47.1868 20.053 47.641 17.5356 48.474 15.1962C49.3375 12.7722 50.611 10.5389 52.2112 8.57861L53.3339 9.48693ZM83.8906 38.1251C86.0317 36.1768 87.7683 33.7903 88.9568 31.1061C90.0995 28.5272 90.7343 25.6737 90.7343 22.6718C90.7343 20.5982 90.4326 18.598 89.8716 16.7135C89.2906 14.7612 88.4303 12.9278 87.3381 11.2597L88.5523 10.4751C89.7207 12.2598 90.6404 14.2201 91.2623 16.3073C91.8642 18.3282 92.1876 20.4649 92.1876 22.6718C92.1876 25.8781 91.5087 28.9279 90.2865 31.6879C89.0186 34.5493 87.1616 37.0995 84.8672 39.1867L83.8906 38.1251Z" fill="#FCD34D"/>
</g>
</g>
</svg>
