<svg width="128" height="81" viewBox="0 0 128 81" fill="none" xmlns="http://www.w3.org/2000/svg">
<path d="M60 31.4152V33.25C60 34.7668 63.6953 36 68.25 36C72.8047 36 76.5 34.7668 76.5 33.25V31.4152C74.7254 32.6656 71.4812 33.25 68.25 33.25C65.0188 33.25 61.7746 32.6656 60 31.4152ZM73.75 19.5C78.3047 19.5 82 18.2668 82 16.75C82 15.2332 78.3047 14 73.75 14C69.1953 14 65.5 15.2332 65.5 16.75C65.5 18.2668 69.1953 19.5 73.75 19.5ZM60 26.9078V29.125C60 30.6418 63.6953 31.875 68.25 31.875C72.8047 31.875 76.5 30.6418 76.5 29.125V26.9078C74.7254 28.3687 71.477 29.125 68.25 29.125C65.023 29.125 61.7746 28.3687 60 26.9078ZM77.875 27.3805C80.3371 26.9035 82 26.0184 82 25V23.1652C81.0031 23.8699 79.5379 24.3512 77.875 24.6477V27.3805ZM68.25 20.875C63.6953 20.875 60 22.4133 60 24.3125C60 26.2117 63.6953 27.75 68.25 27.75C72.8047 27.75 76.5 26.2117 76.5 24.3125C76.5 22.4133 72.8047 20.875 68.25 20.875ZM77.673 23.2941C80.2512 22.8301 82 21.9191 82 20.875V19.0402C80.4746 20.1188 77.8535 20.6988 75.0949 20.8363C76.3625 21.4508 77.2949 22.2758 77.673 23.2941Z" fill="#FCD34D"/>
<path fill-rule="evenodd" clip-rule="evenodd" d="M83.5054 45.9983C79.7962 47.0479 75.7998 47.5731 71.3283 47.3432C72.0417 48.1916 72.1124 49.143 71.7175 50.1368C71.3789 50.9892 70.6703 51.8632 69.7338 52.7092C71.4343 52.0045 73.1275 51.2733 74.7542 50.535C78.1696 48.985 81.2768 47.4118 83.5054 45.9983Z" fill="#FCD34D"/>
<path fill-rule="evenodd" clip-rule="evenodd" d="M31.7451 16.5715C54.5689 7.39984 80.9806 -3.0688 109.781 24.573L120.991 24.3128C114.945 22.857 111.457 19.796 106.399 16.6106C96.3861 10.3051 86.3662 3.99569 75.2677 3.64211C71.2383 3.51361 67.128 4.0819 62.6075 5.25918C58.059 6.44444 53.0923 8.24828 47.3777 10.5813C43.2706 12.2574 38.9491 13.2727 34.9631 15.0869C33.7361 15.6456 32.5131 16.2019 31.2933 16.7519C31.4434 16.6912 31.5943 16.6313 31.7451 16.5715Z" fill="#FCD34D"/>
<path d="M0 23.3025C3.86964 23.2299 7.71761 22.6049 11.5648 21.6056C15.4328 20.6015 19.2952 19.2199 23.1785 17.6411C27.0433 16.0695 30.9667 14.2832 34.9367 12.4762C38.9403 10.654 42.9905 8.81021 47.1138 7.12688C52.8853 4.77069 57.9098 2.94767 62.5313 1.74324C67.1818 0.53162 71.423 -0.0526386 75.6 0.0806553C87.095 0.447014 97.2795 6.86029 107.458 13.2696C113.488 17.0672 119.517 20.8633 125.767 23.3536L127.507 24.0464L125.75 24.6969C117.555 27.7332 110.964 32.1366 104.714 36.3127C90.4093 45.8691 77.8566 54.2563 51.9376 43.1665C47.8328 41.4106 43.7826 39.3537 39.6578 37.2601C27.9197 31.3018 15.5773 25.0354 0.00160411 24.7416V23.3025H0ZM11.9283 23C10.5368 23.3616 9.14365 23.6745 7.7481 23.9331C20.113 25.7194 30.4267 30.9538 40.315 35.9742C44.4198 38.0575 48.4507 40.104 52.509 41.8408C77.7058 52.6216 89.9519 44.4396 103.906 35.1162C109.794 31.182 115.982 27.0483 123.564 23.9977C117.794 21.4843 112.24 17.9875 106.685 14.4892C96.672 8.18365 86.652 1.87414 75.5535 1.52055C71.5241 1.39284 67.4145 1.96034 62.8941 3.13843C58.3447 4.32371 53.3781 6.12677 47.6635 8.46061C43.5571 10.1368 39.5238 11.9725 35.5378 13.7868C31.5742 15.5914 27.6564 17.3745 23.7226 18.9741C19.7783 20.5776 15.8557 21.98 11.9283 23Z" fill="#FCD34D"/>
<path d="M2.63141 23.3025C12.519 23.1397 22.2428 19.2758 32.3198 15.2714C54.4358 6.48366 78.2274 -2.97055 109.781 23.4725L110.438 24.0224L109.781 24.5732C78.2266 51.0162 54.435 41.562 32.3198 32.7743C22.2428 28.7699 12.5182 24.9052 2.63141 24.7432V23.3025V23.3025ZM32.8542 16.6091C25.1037 19.6884 17.5594 22.6863 9.93011 24.0224C17.5603 25.3593 25.1045 28.3564 32.8542 31.4357C54.4261 40.008 77.6231 49.218 108.183 24.0224C77.6223 -1.17309 54.4261 8.03688 32.8542 16.6091Z" fill="#FCD34D"/>
<path d="M109.316 24.7446H125.497V23.3H109.316V24.7446Z" fill="#FCD34D"/>
<path d="M75.6216 51.5822C81.1893 49.0552 85.9409 46.4652 87.3966 44.6062L88.167 45.2049C89.1163 44.5951 89.8859 44.0826 90.4517 43.6931L91.5896 42.9109V71.0862C92.8303 67.7116 94.4537 64.4862 96.4271 61.6439C98.4863 58.6771 100.928 56.1262 103.715 54.2489H101.151C98.9317 54.2489 96.9166 53.3486 95.4577 51.8975C93.9979 50.4456 93.0935 48.4414 93.0935 46.2345V42.2349H94.5468V46.2345C94.5468 48.0431 95.2883 49.6858 96.4857 50.8758C97.6822 52.0659 99.3337 52.8042 101.152 52.8042H109.409L106.696 54.1699C103.154 55.953 100.103 58.8862 97.6204 62.4628C93.6015 68.2511 92.3167 73.8319 90.1379 80.2563V45.6446C85.148 48.9395 72.5296 56.6003 58.0164 62.1699C48.7484 65.7265 38.6995 68.4339 29.344 68.6199C27.4734 68.6566 25.716 68.5935 24.0692 68.4403C17.4791 67.8265 12.6441 65.7704 9.4277 62.9369C6.15833 60.0571 4.55896 56.384 4.48272 52.5967C4.47229 52.0555 4.49235 51.5128 4.54291 50.97C4.86792 47.5148 6.46569 44.6046 8.6878 42.5478C11.0816 40.3313 14.2066 39.1013 17.2568 39.241C20.6049 39.3942 23.2057 41.068 24.7634 43.306C25.5851 44.4865 26.1164 45.825 26.3146 47.1819C26.5144 48.5492 26.3748 49.9404 25.8524 51.2135C25.0202 53.24 23.233 54.9409 20.32 55.7375L19.1082 56.0695L19.4292 54.8603C20.3031 51.567 19.8032 49.5046 18.7118 48.4398C18.2632 48.0024 17.7054 47.7319 17.1036 47.6129C16.4776 47.49 15.8043 47.5283 15.1471 47.7127C13.4819 48.1804 11.9475 49.574 11.5712 51.6445C11.2044 53.659 11.8456 56.0272 13.3993 58.0585C14.8012 59.8927 16.9439 61.4452 19.7614 62.2202C23.8253 63.3368 28.9548 63.4462 34.0764 63.067C42.1864 62.4676 50.241 60.6462 54.085 59.6525C58.2812 58.5662 67.7354 55.162 75.6216 51.5822ZM67.4995 56.558C62.1749 58.642 57.2003 60.3341 54.4485 61.0461C50.5532 62.0534 42.3918 63.8987 34.1791 64.5061C28.9195 64.8948 23.6255 64.7759 19.3762 63.6082C16.2313 62.7438 13.8286 60.9966 12.2477 58.9277C10.4477 56.5723 9.71098 53.7891 10.1475 51.3899C10.633 48.7224 12.6112 46.9265 14.7571 46.3239C15.6302 46.0789 16.5346 46.0286 17.3828 46.1962C18.2543 46.3678 19.0657 46.7661 19.7293 47.4126C20.9965 48.6482 21.6906 50.7785 21.1209 53.9408C22.8575 53.1977 23.9609 52.0212 24.5154 50.6715C24.9359 49.6467 25.0459 48.5125 24.8814 47.3847C24.7152 46.2457 24.2666 45.1195 23.5741 44.1241C22.2548 42.2285 20.0463 40.8102 17.1967 40.6801C14.534 40.5579 11.7919 41.6458 9.67727 43.6029C7.69912 45.4347 6.2763 48.0264 5.9866 51.1001C5.94085 51.5902 5.9224 52.0811 5.93203 52.5679C6.00024 55.9625 7.44232 59.2622 10.3891 61.8586C13.3888 64.5013 17.9454 66.4241 24.2016 67.0068C25.7962 67.1552 27.5007 67.2159 29.3176 67.18C38.4805 66.998 48.364 64.3305 57.4956 60.8266C60.9664 59.4936 64.3272 58.041 67.4995 56.558Z" fill="#FCD34D"/>
<path d="M19.6459 54.5058C21.2686 53.0523 22.1473 51.6085 22.4675 50.2771L22.4643 50.2763C22.7323 49.1629 22.6087 48.1253 22.2075 47.2313C21.8014 46.3262 21.1097 45.5584 20.247 44.9981C19.1748 44.3021 17.8435 43.9286 16.4656 44.01C14.2531 44.1401 12.4451 44.9502 11.0656 46.185C9.89638 47.2313 9.02808 48.5842 8.47597 50.0896C7.91663 51.6133 7.67989 53.291 7.7794 54.9695C7.93267 57.5532 8.88604 60.1288 10.6925 62.1258L9.6139 63.0908C7.57717 60.8392 6.50423 57.9475 6.33169 55.0541C6.22015 53.1824 6.48658 51.3052 7.11252 49.5979C7.74569 47.8731 8.7448 46.319 10.0946 45.1114C11.7084 43.6676 13.8142 42.7209 16.3798 42.5701C18.0738 42.4703 19.7125 42.9308 21.035 43.7897C22.1272 44.4984 23.006 45.4802 23.5284 46.6439C24.0564 47.8196 24.2209 49.1717 23.8759 50.6084H23.8727C23.4883 52.2119 22.4707 53.9144 20.6145 55.5769L19.6459 54.5058Z" fill="#FCD34D"/>
<path d="M68.7081 46.6018C70.435 47.032 71.5449 47.637 72.166 48.3554C72.9067 49.2118 72.9845 50.176 72.5849 51.1832C72.243 52.0429 71.5248 52.9248 70.5763 53.7789C67.9192 56.1709 63.3033 58.4521 60.4111 59.2502L60.0251 57.8614C62.756 57.1088 67.1079 54.9601 69.6061 52.7117C70.3925 52.0038 70.9775 51.3006 71.2343 50.6533C71.4325 50.1528 71.406 49.6875 71.0658 49.2932C70.6365 48.7967 69.773 48.3554 68.3566 48.0026L68.7081 46.6018Z" fill="#FCD34D"/>
<path d="M90.1436 73.2513C90.1476 73.2082 91.3979 58.3634 99.7735 52.8601L100.574 54.0621C92.7822 59.1815 91.5888 73.3343 91.5848 73.375L90.1436 73.2513Z" fill="#FCD34D"/>
<path d="M53.3339 9.3922C51.8396 11.2232 50.6495 13.312 49.8414 15.5812C49.063 17.7666 48.6385 20.1219 48.6385 22.5771C48.6385 25.9661 49.4466 29.1652 50.8807 31.9923C52.3717 34.9319 54.5376 37.4749 57.1779 39.4176L56.3152 40.575C53.4952 38.4989 51.1792 35.782 49.587 32.642C48.0511 29.6137 47.1868 26.1944 47.1868 22.5771C47.1868 19.9583 47.641 17.4409 48.474 15.1015C49.3375 12.6775 50.611 10.4442 52.2112 8.48389L53.3339 9.3922ZM83.8906 38.0304C86.0317 36.0821 87.7683 33.6956 88.9568 31.0113C90.0995 28.4324 90.7343 25.579 90.7343 22.5771C90.7343 20.5035 90.4326 18.5033 89.8716 16.6188C89.2906 14.6665 88.4303 12.8331 87.3381 11.1649L88.5523 10.3803C89.7207 12.165 90.6404 14.1253 91.2623 16.2125C91.8642 18.2335 92.1876 20.3702 92.1876 22.5771C92.1876 25.7833 91.5087 28.8331 90.2865 31.5932C89.0186 34.4546 87.1616 37.0048 84.8672 39.092L83.8906 38.0304Z" fill="#FCD34D"/>
</svg>
