<svg width="128" height="81" viewBox="0 0 128 81" fill="none" xmlns="http://www.w3.org/2000/svg">
<path d="M70.4858 22.062C71.3326 22.062 72.1256 22.3905 72.7259 22.9909C73.3235 23.5913 73.6549 24.3842 73.6549 25.231C73.6549 26.0778 73.3235 26.8708 72.7259 27.4711C72.1256 28.0687 71.3326 28.4001 70.4858 28.4001C69.639 28.4001 68.8461 28.0687 68.2457 27.4711C67.6481 26.8708 67.3168 26.0778 67.3168 25.231C67.3168 24.3842 67.6481 23.5913 68.2457 22.9909C68.5389 22.6954 68.888 22.4611 69.2725 22.3016C69.6571 22.1422 70.0695 22.0607 70.4858 22.062V22.062ZM58.8093 28.7314L60.6615 27.1483C60.5737 26.6102 60.5284 26.0608 60.5284 25.5142C60.5284 24.9676 60.5737 24.4154 60.6615 23.8801L58.8093 22.297C58.6694 22.1772 58.5693 22.0177 58.5222 21.8396C58.4752 21.6616 58.4835 21.4734 58.546 21.3001L58.5715 21.2265C59.0812 19.8011 59.845 18.4799 60.8258 17.3268L60.8767 17.2673C60.9958 17.1273 61.1546 17.0266 61.332 16.9786C61.5095 16.9306 61.6973 16.9374 61.8708 16.9983L64.1704 17.8167C65.02 17.1201 65.9659 16.5707 66.9911 16.1883L67.4357 13.7839C67.4693 13.6028 67.5571 13.4362 67.6876 13.3062C67.8181 13.1762 67.9851 13.0889 68.1664 13.0561L68.2428 13.0419C69.7155 12.7757 71.2675 12.7757 72.7401 13.0419L72.8166 13.0561C72.9978 13.0889 73.1648 13.1762 73.2953 13.3062C73.4258 13.4362 73.5137 13.6028 73.5472 13.7839L73.9947 16.1997C75.0102 16.585 75.9562 17.1331 76.7956 17.8224L79.1122 16.9983C79.2856 16.937 79.4736 16.9298 79.6511 16.9779C79.8287 17.026 79.9874 17.1269 80.1062 17.2673L80.1572 17.3268C81.1363 18.4811 81.8998 19.802 82.4115 21.2265L82.437 21.3001C82.5644 21.6542 82.4596 22.0506 82.1736 22.297L80.2988 23.8971C80.3866 24.4295 80.4291 24.9733 80.4291 25.5114C80.4291 26.0551 80.3866 26.5989 80.2988 27.1256L82.1679 28.7257C82.3079 28.8455 82.408 29.005 82.455 29.1831C82.5021 29.3612 82.4938 29.5494 82.4313 29.7226L82.4058 29.7962C81.8932 31.2208 81.1371 32.5376 80.1515 33.6959L80.1006 33.7554C79.9815 33.8955 79.8227 33.9961 79.6453 34.0442C79.4678 34.0922 79.28 34.0853 79.1065 34.0245L76.7899 33.2003C75.946 33.8942 75.0057 34.4436 73.989 34.8231L73.5416 37.2388C73.508 37.42 73.4202 37.5866 73.2897 37.7166C73.1591 37.8466 72.9922 37.9338 72.8109 37.9667L72.7344 37.9808C71.2473 38.2485 69.7243 38.2485 68.2372 37.9808L68.1607 37.9667C67.9795 37.9338 67.8125 37.8466 67.682 37.7166C67.5515 37.5866 67.4636 37.42 67.43 37.2388L66.9854 34.8344C65.9602 34.4493 65.0143 33.9027 64.1647 33.206L61.8651 34.0245C61.6917 34.0858 61.5037 34.0929 61.3262 34.0449C61.1486 33.9968 60.9899 33.8958 60.8711 33.7554L60.8201 33.6959C59.8345 32.532 59.0784 31.2208 58.5658 29.7962L58.5403 29.7226C58.4185 29.3714 58.5233 28.9778 58.8093 28.7314ZM70.4858 30.2097C73.2357 30.2097 75.4645 27.9809 75.4645 25.231C75.4645 22.4811 73.2357 20.2523 70.4858 20.2523C67.7359 20.2523 65.5071 22.4811 65.5071 25.231C65.5071 27.9809 67.7359 30.2097 70.4858 30.2097Z" fill="#FCD34D"/>
<path fill-rule="evenodd" clip-rule="evenodd" d="M83.5054 45.9509C79.7962 47.0005 75.7998 47.5257 71.3283 47.2958C72.0417 48.1443 72.1124 49.0957 71.7175 50.0894C71.3789 50.9418 70.6703 51.8158 69.7338 52.6619C71.4343 51.9571 73.1275 51.226 74.7542 50.4877C78.1696 48.9376 81.2768 47.3645 83.5054 45.9509Z" fill="#FCD34D"/>
<path fill-rule="evenodd" clip-rule="evenodd" d="M31.7451 16.5241C54.5689 7.35247 80.9806 -3.11616 109.781 24.5256L120.991 24.2654C114.945 22.8096 111.457 19.7487 106.399 16.5632C96.3861 10.2578 86.3662 3.94833 75.2677 3.59475C71.2383 3.46624 67.128 4.03453 62.6075 5.21182C58.059 6.39708 53.0923 8.20092 47.3777 10.5339C43.2706 12.2101 38.9491 13.2253 34.9631 15.0395C33.7361 15.5982 32.5131 16.1546 31.2933 16.7045C31.4434 16.6438 31.5943 16.584 31.7451 16.5241Z" fill="#FCD34D"/>
<path d="M0 23.2552C3.86964 23.1825 7.71761 22.5576 11.5648 21.5583C15.4328 20.5542 19.2952 19.1725 23.1785 17.5938C27.0433 16.0222 30.9667 14.2359 34.9367 12.4288C38.9403 10.6066 42.9905 8.76285 47.1138 7.07951C52.8853 4.72332 57.9098 2.90031 62.5313 1.69587C67.1818 0.484257 71.423 -0.100002 75.6 0.033292C87.095 0.399651 97.2795 6.81292 107.458 13.2222C113.488 17.0199 119.517 20.816 125.767 23.3063L127.507 23.9991L125.75 24.6496C117.555 27.6858 110.964 32.0893 104.714 36.2653C90.4093 45.8218 77.8566 54.2089 51.9376 43.1192C47.8328 41.3632 43.7826 39.3063 39.6578 37.2127C27.9197 31.2544 15.5773 24.988 0.00160411 24.6943V23.2552H0ZM11.9283 22.9527C10.5368 23.3142 9.14365 23.6271 7.7481 23.8857C20.113 25.672 30.4267 30.9064 40.315 35.9269C44.4198 38.0101 48.4507 40.0566 52.509 41.7934C77.7058 52.5742 89.9519 44.3922 103.906 35.0688C109.794 31.1347 115.982 27.001 123.564 23.9504C117.794 21.4369 112.24 17.9402 106.685 14.4418C96.672 8.13629 86.652 1.82677 75.5535 1.47319C71.5241 1.34548 67.4145 1.91298 62.8941 3.09107C58.3447 4.27635 53.3781 6.07941 47.6635 8.41325C43.5571 10.0894 39.5238 11.9252 35.5378 13.7394C31.5742 15.5441 27.6564 17.3272 23.7226 18.9267C19.7783 20.5302 15.8557 21.9326 11.9283 22.9527Z" fill="#FCD34D"/>
<path d="M2.63141 23.2551C12.519 23.0923 22.2428 19.2284 32.3198 15.224C54.4358 6.43629 78.2274 -3.01791 109.781 23.4251L110.438 23.9751L109.781 24.5258C78.2266 50.9688 54.435 41.5146 32.3198 32.7269C22.2428 28.7225 12.5182 24.8578 2.63141 24.6958V23.2551V23.2551ZM32.8542 16.5618C25.1037 19.6411 17.5594 22.6389 9.93011 23.9751C17.5603 25.312 25.1045 28.3091 32.8542 31.3884C54.4261 39.9606 77.6231 49.1706 108.183 23.9751C77.6223 -1.22046 54.4261 7.98951 32.8542 16.5618Z" fill="#FCD34D"/>
<path d="M109.316 24.6975H125.497V23.2527H109.316V24.6975Z" fill="#FCD34D"/>
<path d="M75.6216 51.5348C81.1893 49.0078 85.9409 46.4178 87.3966 44.5588L88.167 45.1575C89.1163 44.5477 89.8859 44.0352 90.4517 43.6457L91.5896 42.8635V71.0387C92.8303 67.664 94.4537 64.4387 96.4271 61.5964C98.4863 58.6296 100.928 56.0787 103.715 54.2014H101.151C98.9317 54.2014 96.9166 53.3011 95.4577 51.8501C93.9979 50.3982 93.0935 48.394 93.0935 46.1871V42.1875H94.5468V46.1871C94.5468 47.9957 95.2883 49.6383 96.4857 50.8284C97.6822 52.0185 99.3337 52.7568 101.152 52.7568H109.409L106.696 54.1224C103.154 55.9055 100.103 58.8388 97.6204 62.4153C93.6015 68.2036 92.3167 73.7843 90.1379 80.2087V45.5972C85.148 48.8921 72.5296 56.5528 58.0164 62.1224C48.7484 65.679 38.6995 68.3864 29.344 68.5723C27.4734 68.6091 25.716 68.546 24.0692 68.3928C17.4791 67.779 12.6441 65.7229 9.4277 62.8894C6.15833 60.0097 4.55896 56.3365 4.48272 52.5492C4.47229 52.0081 4.49235 51.4653 4.54291 50.9226C4.86792 47.4673 6.46569 44.5572 8.6878 42.5004C11.0816 40.2839 14.2066 39.0539 17.2568 39.1936C20.6049 39.3468 23.2057 41.0206 24.7634 43.2586C25.5851 44.4391 26.1164 45.7776 26.3146 47.1345C26.5144 48.5018 26.3748 49.893 25.8524 51.166C25.0202 53.1926 23.233 54.8934 20.32 55.69L19.1082 56.022L19.4292 54.8128C20.3031 51.5196 19.8032 49.4572 18.7118 48.3924C18.2632 47.955 17.7054 47.6844 17.1036 47.5655C16.4776 47.4426 15.8043 47.4809 15.1471 47.6653C13.4819 48.133 11.9475 49.5266 11.5712 51.597C11.2044 53.6116 11.8456 55.9797 13.3993 58.0111C14.8012 59.8452 16.9439 61.3977 19.7614 62.1727C23.8253 63.2893 28.9548 63.3987 34.0764 63.0195C42.1864 62.4201 50.241 60.5987 54.085 59.605C58.2812 58.5187 67.7354 55.1145 75.6216 51.5348ZM67.4995 56.5105C62.1749 58.5945 57.2003 60.2866 54.4485 60.9986C50.5532 62.0059 42.3918 63.8512 34.1791 64.4586C28.9195 64.8473 23.6255 64.7284 19.3762 63.5607C16.2313 62.6963 13.8286 60.9491 12.2477 58.8803C10.4477 56.5249 9.71098 53.7417 10.1475 51.3424C10.633 48.675 12.6112 46.8791 14.7571 46.2765C15.6302 46.0314 16.5346 45.9812 17.3828 46.1488C18.2543 46.3204 19.0657 46.7187 19.7293 47.3652C20.9965 48.6007 21.6906 50.731 21.1209 53.8933C22.8575 53.1503 23.9609 51.9738 24.5154 50.6241C24.9359 49.5992 25.0459 48.465 24.8814 47.3372C24.7152 46.1983 24.2666 45.0721 23.5741 44.0768C22.2548 42.1811 20.0463 40.7628 17.1967 40.6327C14.534 40.5106 11.7919 41.5985 9.67727 43.5555C7.69912 45.3873 6.2763 47.979 5.9866 51.0527C5.94085 51.5428 5.9224 52.0336 5.93203 52.5205C6.00024 55.9151 7.44232 59.2147 10.3891 61.8111C13.3888 64.4538 17.9454 66.3766 24.2016 66.9593C25.7962 67.1077 27.5007 67.1684 29.3176 67.1325C38.4805 66.9505 48.364 64.283 57.4956 60.7791C60.9664 59.4462 64.3272 57.9935 67.4995 56.5105Z" fill="#FCD34D"/>
<path d="M19.6459 54.4583C21.2686 53.0049 22.1473 51.561 22.4675 50.2296L22.4643 50.2288C22.7323 49.1154 22.6087 48.0777 22.2075 47.1838C21.8014 46.2787 21.1097 45.5108 20.247 44.9505C19.1748 44.2545 17.8435 43.881 16.4656 43.9624C14.2531 44.0925 12.4451 44.9026 11.0656 46.1374C9.89638 47.1838 9.02808 48.5367 8.47597 50.042C7.91663 51.5658 7.67989 53.2435 7.7794 54.9221C7.93267 57.5057 8.88604 60.0814 10.6925 62.0785L9.6139 63.0435C7.57717 60.7918 6.50423 57.9 6.33169 55.0067C6.22015 53.135 6.48658 51.2577 7.11252 49.5504C7.74569 47.8255 8.7448 46.2715 10.0946 45.0638C11.7084 43.62 13.8142 42.6733 16.3798 42.5225C18.0738 42.4227 19.7125 42.8832 21.035 43.7421C22.1272 44.4509 23.006 45.4326 23.5284 46.5963C24.0564 47.772 24.2209 49.1241 23.8759 50.5609H23.8727C23.4883 52.1644 22.4707 53.8669 20.6145 55.5295L19.6459 54.4583Z" fill="#FCD34D"/>
<path d="M68.7081 46.5544C70.435 46.9847 71.5449 47.5897 72.166 48.308C72.9067 49.1644 72.9845 50.1286 72.5849 51.1359C72.243 51.9955 71.5248 52.8775 70.5763 53.7315C67.9192 56.1236 63.3033 58.4047 60.4111 59.2029L60.0251 57.8141C62.756 57.0614 67.1079 54.9128 69.6061 52.6644C70.3925 51.9564 70.9775 51.2532 71.2343 50.6059C71.4325 50.1055 71.406 49.6401 71.0658 49.2458C70.6365 48.7494 69.773 48.308 68.3566 47.9552L68.7081 46.5544Z" fill="#FCD34D"/>
<path d="M90.1436 73.2039C90.1476 73.1608 91.3979 58.316 99.7735 52.8127L100.574 54.0148C92.7822 59.1341 91.5888 73.2869 91.5848 73.3276L90.1436 73.2039Z" fill="#FCD34D"/>
<path d="M53.3339 9.34484C51.8396 11.1758 50.6495 13.2646 49.8414 15.5338C49.063 17.7192 48.6385 20.0746 48.6385 22.5297C48.6385 25.9188 49.4466 29.1178 50.8807 31.9449C52.3717 34.8846 54.5376 37.4275 57.1779 39.3702L56.3152 40.5276C53.4952 38.4516 51.1792 35.7346 49.587 32.5946C48.0511 29.5664 47.1868 26.147 47.1868 22.5297C47.1868 19.911 47.641 17.3935 48.474 15.0541C49.3375 12.6301 50.611 10.3968 52.2112 8.43652L53.3339 9.34484ZM83.8906 37.983C86.0317 36.0347 87.7683 33.6482 88.9568 30.964C90.0995 28.3851 90.7343 25.5316 90.7343 22.5297C90.7343 20.4561 90.4326 18.4559 89.8716 16.5714C89.2906 14.6191 88.4303 12.7857 87.3381 11.1176L88.5523 10.333C89.7207 12.1177 90.6404 14.078 91.2623 16.1652C91.8642 18.1861 92.1876 20.3228 92.1876 22.5297C92.1876 25.736 91.5087 28.7858 90.2865 31.5458C89.0186 34.4072 87.1616 36.9574 84.8672 39.0446L83.8906 37.983Z" fill="#FCD34D"/>
</svg>
