<svg width="128" height="81" viewBox="0 0 128 81" fill="none" xmlns="http://www.w3.org/2000/svg">
<path d="M81.2566 20.7144L74.3617 19.7175L71.2794 13.5014C71.1953 13.3312 71.0568 13.1934 70.8857 13.1097C70.4566 12.899 69.9352 13.0745 69.7207 13.5014L66.6384 19.7175L59.7435 20.7144C59.5534 20.7414 59.3796 20.8305 59.2465 20.9656C59.0857 21.1301 58.997 21.3514 59.0001 21.5809C59.0031 21.8103 59.0976 22.0292 59.2628 22.1894L64.2514 27.0278L63.0728 33.8599C63.0452 34.0188 63.0629 34.1822 63.1239 34.3317C63.1849 34.4811 63.2867 34.6106 63.4179 34.7054C63.5491 34.8001 63.7043 34.8565 63.8661 34.8679C64.0278 34.8794 64.1895 34.8456 64.3329 34.7703L70.5001 31.5447L76.6672 34.7703C76.8356 34.8594 77.0311 34.8891 77.2185 34.8567C77.691 34.7757 78.0087 34.3299 77.9273 33.8599L76.7487 27.0278L81.7373 22.1894C81.8731 22.057 81.9627 21.8841 81.9898 21.695C82.0632 21.2223 81.7318 20.7846 81.2566 20.7144V20.7144Z" fill="#FCD34D"/>
<path fill-rule="evenodd" clip-rule="evenodd" d="M83.5054 46.0457C79.7962 47.0952 75.7998 47.6204 71.3283 47.3906C72.0417 48.239 72.1124 49.1904 71.7175 50.1841C71.3789 51.0366 70.6703 51.9105 69.7338 52.7566C71.4343 52.0518 73.1275 51.3207 74.7542 50.5824C78.1696 49.0324 81.2768 47.4592 83.5054 46.0457Z" fill="#FCD34D"/>
<path fill-rule="evenodd" clip-rule="evenodd" d="M31.7451 16.6188C54.5689 7.4472 80.9806 -3.02144 109.781 24.6204L120.991 24.3602C114.945 22.9043 111.457 19.8434 106.399 16.6579C96.3861 10.3525 86.3662 4.04306 75.2677 3.68947C71.2383 3.56097 67.128 4.12926 62.6075 5.30654C58.059 6.49181 53.0923 8.29564 47.3777 10.6287C43.2706 12.3048 38.9491 13.32 34.9631 15.1343C33.7361 15.693 32.5131 16.2493 31.2933 16.7992C31.4434 16.7386 31.5943 16.6787 31.7451 16.6188Z" fill="#FCD34D"/>
<path d="M0 23.3499C3.86964 23.2773 7.71761 22.6523 11.5648 21.653C15.4328 20.6489 19.2952 19.2673 23.1785 17.6885C27.0433 16.1169 30.9667 14.3306 34.9367 12.5236C38.9403 10.7013 42.9905 8.85757 47.1138 7.17424C52.8853 4.81805 57.9098 2.99504 62.5313 1.7906C67.1818 0.578983 71.423 -0.00527531 75.6 0.128019C87.095 0.494377 97.2795 6.90765 107.458 13.3169C113.488 17.1146 119.517 20.9107 125.767 23.401L127.507 24.0938L125.75 24.7443C117.555 27.7805 110.964 32.184 104.714 36.36C90.4093 45.9165 77.8566 54.3036 51.9376 43.2139C47.8328 41.4579 43.7826 39.401 39.6578 37.3074C27.9197 31.3491 15.5773 25.0827 0.00160411 24.789V23.3499H0ZM11.9283 23.0474C10.5368 23.409 9.14365 23.7218 7.7481 23.9804C20.113 25.7667 30.4267 31.0011 40.315 36.0216C44.4198 38.1048 48.4507 40.1513 52.509 41.8881C77.7058 52.669 89.9519 44.487 103.906 35.1636C109.794 31.2294 115.982 27.0957 123.564 24.0451C117.794 21.5317 112.24 18.0349 106.685 14.5365C96.672 8.23101 86.652 1.9215 75.5535 1.56791C71.5241 1.44021 67.4145 2.0077 62.8941 3.1858C58.3447 4.37108 53.3781 6.17413 47.6635 8.50798C43.5571 10.1841 39.5238 12.0199 35.5378 13.8341C31.5742 15.6388 27.6564 17.4219 23.7226 19.0214C19.7783 20.625 15.8557 22.0273 11.9283 23.0474Z" fill="#FCD34D"/>
<path d="M2.63141 23.3499C12.519 23.187 22.2428 19.3231 32.3198 15.3188C54.4358 6.53102 78.2274 -2.92318 109.781 23.5199L110.438 24.0698L109.781 24.6205C78.2266 51.0636 54.435 41.6094 32.3198 32.8216C22.2428 28.8172 12.5182 24.9526 2.63141 24.7905V23.3499ZM32.8542 16.6565C25.1037 19.7358 17.5594 22.7337 9.93011 24.0698C17.5603 25.4067 25.1045 28.4038 32.8542 31.4831C54.4261 40.0553 77.6231 49.2653 108.183 24.0698C77.6223 -1.12573 54.4261 8.08424 32.8542 16.6565Z" fill="#FCD34D"/>
<path d="M109.316 24.7922H125.497V23.3474H109.316V24.7922Z" fill="#FCD34D"/>
<path d="M75.6216 51.6295C81.1893 49.1025 85.9409 46.5125 87.3966 44.6536L88.167 45.2522C89.1163 44.6424 89.8859 44.13 90.4517 43.7405L91.5896 42.9583V71.1334C92.8303 67.7588 94.4537 64.5334 96.4271 61.6911C98.4863 58.7244 100.928 56.1734 103.715 54.2962H101.151C98.9317 54.2962 96.9166 53.3958 95.4577 51.9448C93.9979 50.4929 93.0935 48.4887 93.0935 46.2818V42.2822H94.5468V46.2818C94.5468 48.0905 95.2883 49.7331 96.4857 50.9231C97.6822 52.1132 99.3337 52.8515 101.152 52.8515H109.409L106.696 54.2171C103.154 56.0002 100.103 58.9335 97.6204 62.51C93.6015 68.2983 92.3167 73.8791 90.1379 80.3035V45.692C85.148 48.9868 72.5296 56.6475 58.0164 62.2171C48.7484 65.7737 38.6995 68.4811 29.344 68.6671C27.4734 68.7038 25.716 68.6407 24.0692 68.4875C17.4791 67.8737 12.6441 65.8176 9.4277 62.9842C6.15833 60.1044 4.55896 56.4312 4.48272 52.644C4.47229 52.1028 4.49235 51.5601 4.54291 51.0173C4.86792 47.5621 6.46569 44.652 8.6878 42.5951C11.0816 40.3786 14.2066 39.1486 17.2568 39.2883C20.6049 39.4416 23.2057 41.1153 24.7634 43.3534C25.5851 44.5338 26.1164 45.8724 26.3146 47.2292C26.5144 48.5965 26.3748 49.9877 25.8524 51.2608C25.0202 53.2873 23.233 54.9882 20.32 55.7847L19.1082 56.1168L19.4292 54.9076C20.3031 51.6143 19.8032 49.5519 18.7118 48.4871C18.2632 48.0497 17.7054 47.7792 17.1036 47.6602C16.4776 47.5373 15.8043 47.5756 15.1471 47.76C13.4819 48.2277 11.9475 49.6213 11.5712 51.6918C11.2044 53.7063 11.8456 56.0745 13.3993 58.1058C14.8012 59.94 16.9439 61.4924 19.7614 62.2674C23.8253 63.384 28.9548 63.4934 34.0764 63.1143C42.1864 62.5148 50.241 60.6934 54.085 59.6997C58.2812 58.6134 67.7354 55.2093 75.6216 51.6295ZM67.4995 56.6052C62.1749 58.6892 57.2003 60.3813 54.4485 61.0933C50.5532 62.1006 42.3918 63.9459 34.1791 64.5533C28.9195 64.942 23.6255 64.8231 19.3762 63.6554C16.2313 62.791 13.8286 61.0438 12.2477 58.975C10.4477 56.6196 9.71098 53.8364 10.1475 51.4371C10.633 48.7697 12.6112 46.9738 14.7571 46.3712C15.6302 46.1262 16.5346 46.0759 17.3828 46.2435C18.2543 46.4151 19.0657 46.8134 19.7293 47.4599C20.9965 48.6955 21.6906 50.8258 21.1209 53.9881C22.8575 53.245 23.9609 52.0685 24.5154 50.7188C24.9359 49.694 25.0459 48.5598 24.8814 47.432C24.7152 46.293 24.2666 45.1668 23.5741 44.1715C22.2548 42.2758 20.0463 40.8575 17.1967 40.7274C14.534 40.6053 11.7919 41.6932 9.67727 43.6503C7.69912 45.4821 6.2763 48.0737 5.9866 51.1474C5.94085 51.6375 5.9224 52.1284 5.93203 52.6152C6.00024 56.0098 7.44232 59.3094 10.3891 61.9058C13.3888 64.5486 17.9454 66.4713 24.2016 67.054C25.7962 67.2024 27.5007 67.2631 29.3176 67.2272C38.4805 67.0452 48.364 64.3777 57.4956 60.8738C60.9664 59.5409 64.3272 58.0882 67.4995 56.6052Z" fill="#FCD34D"/>
<path d="M19.6459 54.5533C21.2686 53.0998 22.1473 51.6559 22.4675 50.3246L22.4643 50.3238C22.7323 49.2103 22.6087 48.1727 22.2075 47.2788C21.8014 46.3736 21.1097 45.6058 20.247 45.0455C19.1748 44.3495 17.8435 43.9759 16.4656 44.0573C14.2531 44.1874 12.4451 44.9976 11.0656 46.2324C9.89638 47.2788 9.02808 48.6317 8.47597 50.137C7.91663 51.6607 7.67989 53.3385 7.7794 55.017C7.93267 57.6007 8.88604 60.1764 10.6925 62.1734L9.6139 63.1384C7.57717 60.8868 6.50423 57.995 6.33169 55.1016C6.22015 53.2299 6.48658 51.3526 7.11252 49.6453C7.74569 47.9205 8.7448 46.3665 10.0946 45.1588C11.7084 43.7149 13.8142 42.7683 16.3798 42.6174C18.0738 42.5177 19.7125 42.9782 21.035 43.837C22.1272 44.5458 23.006 45.5276 23.5284 46.6913C24.0564 47.867 24.2209 49.2191 23.8759 50.6558H23.8727C23.4883 52.2594 22.4707 53.9619 20.6145 55.6244L19.6459 54.5533Z" fill="#FCD34D"/>
<path d="M68.7081 46.6492C70.435 47.0794 71.5449 47.6844 72.166 48.4027C72.9067 49.2592 72.9845 50.2233 72.5849 51.2306C72.243 52.0902 71.5248 52.9722 70.5763 53.8262C67.9192 56.2183 63.3033 58.4994 60.4111 59.2976L60.0251 57.9088C62.756 57.1561 67.1079 55.0075 69.6061 52.7591C70.3925 52.0511 70.9775 51.3479 71.2343 50.7006C71.4325 50.2002 71.406 49.7349 71.0658 49.3406C70.6365 48.8441 69.773 48.4027 68.3566 48.0499L68.7081 46.6492Z" fill="#FCD34D"/>
<path d="M90.1436 73.2987C90.1476 73.2556 91.3979 58.4107 99.7735 52.9075L100.574 54.1095C92.7822 59.2288 91.5888 73.3817 91.5848 73.4224L90.1436 73.2987Z" fill="#FCD34D"/>
<path d="M53.3339 9.43956C51.8396 11.2706 50.6495 13.3594 49.8414 15.6285C49.063 17.8139 48.6385 20.1693 48.6385 22.6245C48.6385 26.0135 49.4466 29.2125 50.8807 32.0396C52.3717 34.9793 54.5376 37.5222 57.1779 39.465L56.3152 40.6223C53.4952 38.5463 51.1792 35.8293 49.587 32.6893C48.0511 29.6611 47.1868 26.2418 47.1868 22.6245C47.1868 20.0057 47.641 17.4883 48.474 15.1488C49.3375 12.7248 50.611 10.4915 52.2112 8.53125L53.3339 9.43956ZM83.8906 38.0778C86.0317 36.1294 87.7683 33.7429 88.9568 31.0587C90.0995 28.4798 90.7343 25.6264 90.7343 22.6245C90.7343 20.5508 90.4326 18.5506 89.8716 16.6662C89.2906 14.7138 88.4303 12.8805 87.3381 11.2123L88.5523 10.4277C89.7207 12.2124 90.6404 14.1727 91.2623 16.2599C91.8642 18.2808 92.1876 20.4175 92.1876 22.6245C92.1876 25.8307 91.5087 28.8805 90.2865 31.6406C89.0186 34.502 87.1616 37.0521 84.8672 39.1393L83.8906 38.0778Z" fill="#FCD34D"/>
</svg>
